<?xml version="1.0" standalone="no"?>
<!DOCTYPE svg PUBLIC "-//W3C//DTD SVG 20010904//EN"
 "http://www.w3.org/TR/2001/REC-SVG-20010904/DTD/svg10.dtd">
<svg version="1.0" xmlns="http://www.w3.org/2000/svg"
 width="512.000000pt" height="512.000000pt" viewBox="0 0 512.000000 512.000000"
 preserveAspectRatio="xMidYMid meet">
<metadata>
Created by potrace 1.16, written by Peter Selinger 2001-2019
</metadata>
<g transform="translate(0.000000,512.000000) scale(0.100000,-0.100000)"
fill="#000000" stroke="none">
<path d="M1523 3913 l-123 -4 0 -1254 0 -1255 638 0 c350 0 661 3 690 6 l52 7
0 255 0 255 -435 -7 -435 -8 0 1006 0 1006 -132 -2 c-73 -1 -188 -4 -255 -5z"/>
<path d="M2180 3667 l0 -255 313 -5 c389 -6 439 -17 586 -127 347 -256 430
-690 200 -1039 -57 -87 -133 -166 -196 -204 l-33 -19 0 -279 0 -279 68 26
c364 137 670 485 762 865 91 379 2 786 -237 1083 -203 253 -420 389 -733 458
-82 18 -139 21 -412 25 l-318 5 0 -255z"/>
</g>
</svg>
